<svg id="visual" viewBox="0 0 900 600" width="900" height="600" xmlns="http://www.w3.org/2000/svg" xmlns:xlink="http://www.w3.org/1999/xlink" version="1.1"><rect x="0" y="0" width="900" height="600" fill="#23bcff"></rect><path d="M0 476L39 476L39 472L78 472L78 457L117 457L117 490L157 490L157 471L196 471L196 490L235 490L235 469L274 469L274 448L313 448L313 482L352 482L352 445L391 445L391 449L430 449L430 464L470 464L470 477L509 477L509 487L548 487L548 444L587 444L587 480L626 480L626 467L665 467L665 457L704 457L704 483L743 483L743 454L783 454L783 473L822 473L822 476L861 476L861 481L900 481L900 482L900 601L900 601L861 601L861 601L822 601L822 601L783 601L783 601L743 601L743 601L704 601L704 601L665 601L665 601L626 601L626 601L587 601L587 601L548 601L548 601L509 601L509 601L470 601L470 601L430 601L430 601L391 601L391 601L352 601L352 601L313 601L313 601L274 601L274 601L235 601L235 601L196 601L196 601L157 601L157 601L117 601L117 601L78 601L78 601L39 601L39 601L0 601Z" fill="#0082dd"></path><path d="M0 471L39 471L39 488L78 488L78 481L117 481L117 499L157 499L157 494L196 494L196 481L235 481L235 487L274 487L274 513L313 513L313 510L352 510L352 487L391 487L391 473L430 473L430 486L470 486L470 488L509 488L509 503L548 503L548 507L587 507L587 493L626 493L626 491L665 491L665 494L704 494L704 490L743 490L743 505L783 505L783 487L822 487L822 493L861 493L861 492L900 492L900 492L900 601L900 601L861 601L861 601L822 601L822 601L783 601L783 601L743 601L743 601L704 601L704 601L665 601L665 601L626 601L626 601L587 601L587 601L548 601L548 601L509 601L509 601L470 601L470 601L430 601L430 601L391 601L391 601L352 601L352 601L313 601L313 601L274 601L274 601L235 601L235 601L196 601L196 601L157 601L157 601L117 601L117 601L78 601L78 601L39 601L39 601L0 601Z" fill="#008ae6"></path><path d="M0 515L39 515L39 528L78 528L78 529L117 529L117 519L157 519L157 525L196 525L196 528L235 528L235 513L274 513L274 509L313 509L313 522L352 522L352 521L391 521L391 509L430 509L430 536L470 536L470 511L509 511L509 507L548 507L548 505L587 505L587 522L626 522L626 513L665 513L665 535L704 535L704 536L743 536L743 534L783 534L783 519L822 519L822 533L861 533L861 524L900 524L900 500L900 601L900 601L861 601L861 601L822 601L822 601L783 601L783 601L743 601L743 601L704 601L704 601L665 601L665 601L626 601L626 601L587 601L587 601L548 601L548 601L509 601L509 601L470 601L470 601L430 601L430 601L391 601L391 601L352 601L352 601L313 601L313 601L274 601L274 601L235 601L235 601L196 601L196 601L157 601L157 601L117 601L117 601L78 601L78 601L39 601L39 601L0 601Z" fill="#0092ee"></path><path d="M0 539L39 539L39 555L78 555L78 534L117 534L117 531L157 531L157 551L196 551L196 529L235 529L235 544L274 544L274 535L313 535L313 539L352 539L352 561L391 561L391 534L430 534L430 551L470 551L470 543L509 543L509 530L548 530L548 539L587 539L587 549L626 549L626 547L665 547L665 559L704 559L704 538L743 538L743 548L783 548L783 533L822 533L822 559L861 559L861 549L900 549L900 558L900 601L900 601L861 601L861 601L822 601L822 601L783 601L783 601L743 601L743 601L704 601L704 601L665 601L665 601L626 601L626 601L587 601L587 601L548 601L548 601L509 601L509 601L470 601L470 601L430 601L430 601L391 601L391 601L352 601L352 601L313 601L313 601L274 601L274 601L235 601L235 601L196 601L196 601L157 601L157 601L117 601L117 601L78 601L78 601L39 601L39 601L0 601Z" fill="#009af7"></path><path d="M0 559L39 559L39 566L78 566L78 565L117 565L117 556L157 556L157 575L196 575L196 572L235 572L235 575L274 575L274 576L313 576L313 556L352 556L352 554L391 554L391 569L430 569L430 581L470 581L470 582L509 582L509 568L548 568L548 565L587 565L587 568L626 568L626 571L665 571L665 554L704 554L704 573L743 573L743 557L783 557L783 572L822 572L822 578L861 578L861 575L900 575L900 565L900 601L900 601L861 601L861 601L822 601L822 601L783 601L783 601L743 601L743 601L704 601L704 601L665 601L665 601L626 601L626 601L587 601L587 601L548 601L548 601L509 601L509 601L470 601L470 601L430 601L430 601L391 601L391 601L352 601L352 601L313 601L313 601L274 601L274 601L235 601L235 601L196 601L196 601L157 601L157 601L117 601L117 601L78 601L78 601L39 601L39 601L0 601Z" fill="#00a3ff"></path></svg>