<svg id="visual" viewBox="0 0 900 600" width="900" height="600" xmlns="http://www.w3.org/2000/svg" xmlns:xlink="http://www.w3.org/1999/xlink" version="1.1"><rect x="0" y="0" width="900" height="600" fill="#23bcff"></rect><path d="M0 322L50 330.5C100 339 200 356 300 352.8C400 349.7 500 326.3 600 324.5C700 322.7 800 342.3 850 352.2L900 362L900 601L850 601C800 601 700 601 600 601C500 601 400 601 300 601C200 601 100 601 50 601L0 601Z" fill="#0082dd"></path><path d="M0 420L50 416.8C100 413.7 200 407.3 300 406.8C400 406.3 500 411.7 600 412.5C700 413.3 800 409.7 850 407.8L900 406L900 601L850 601C800 601 700 601 600 601C500 601 400 601 300 601C200 601 100 601 50 601L0 601Z" fill="#0088e4"></path><path d="M0 395L50 395.3C100 395.7 200 396.3 300 399.7C400 403 500 409 600 407.7C700 406.3 800 397.7 850 393.3L900 389L900 601L850 601C800 601 700 601 600 601C500 601 400 601 300 601C200 601 100 601 50 601L0 601Z" fill="#008feb"></path><path d="M0 470L50 464.5C100 459 200 448 300 453C400 458 500 479 600 487C700 495 800 490 850 487.5L900 485L900 601L850 601C800 601 700 601 600 601C500 601 400 601 300 601C200 601 100 601 50 601L0 601Z" fill="#0095f1"></path><path d="M0 491L50 498C100 505 200 519 300 525.7C400 532.3 500 531.7 600 524.3C700 517 800 503 850 496L900 489L900 601L850 601C800 601 700 601 600 601C500 601 400 601 300 601C200 601 100 601 50 601L0 601Z" fill="#009cf8"></path><path d="M0 551L50 551.3C100 551.7 200 552.3 300 548.3C400 544.3 500 535.7 600 536.7C700 537.7 800 548.3 850 553.7L900 559L900 601L850 601C800 601 700 601 600 601C500 601 400 601 300 601C200 601 100 601 50 601L0 601Z" fill="#00a3ff"></path></svg>