<svg xmlns="http://www.w3.org/2000/svg" version="1.1" xmlns:xlink="http://www.w3.org/1999/xlink" xmlns:svgjs="http://svgjs.dev/svgjs" width="1800" height="1200" preserveAspectRatio="none" viewBox="0 0 1800 1200"><g mask="url(&quot;#SvgjsMask1089&quot;)" fill="none"><rect width="1800" height="1200" x="0" y="0" fill="rgba(35, 188, 255, 1)"></rect><path d="M1890 1200L0 1200 L0 900.96Q15.9 826.87, 90 842.77Q125.08 787.85, 180 822.93Q258.13 811.05, 270 889.18Q333.59 802.76, 420 866.35Q474.52 770.87, 570 825.39Q623.49 788.88, 660 842.36Q726.64 819, 750 885.64Q787.72 773.36, 900 811.08Q958.64 779.72, 990 838.36Q1068.78 827.14, 1080 905.93Q1114.17 790.11, 1230 824.28Q1315.77 760.05, 1380 845.82Q1446.64 822.47, 1470 889.11Q1517.34 786.45, 1620 833.79Q1682.43 806.22, 1710 868.66Q1772.35 841.01, 1800 903.36Q1835.92 849.29, 1890 885.21z" fill="rgba(0, 130, 221, 1)"></path><path d="M1890 1200L0 1200 L0 976.85Q42.53 929.38, 90 971.91Q111.2 903.11, 180 924.31Q231.64 885.95, 270 937.59Q299 876.59, 360 905.59Q459.08 854.67, 510 953.76Q592.38 886.13, 660 968.51Q679.59 898.1, 750 917.68Q815.68 833.36, 900 899.03Q1010.5 859.53, 1050 970.04Q1112.16 882.2, 1200 944.36Q1262.33 856.69, 1350 919.03Q1418.75 897.78, 1440 966.53Q1495.17 931.7, 1530 986.88Q1555.67 922.55, 1620 948.22Q1636.95 875.17, 1710 892.12Q1763.42 855.55, 1800 908.97Q1881.21 900.18, 1890 981.4z" fill="rgba(0, 138, 230, 1)"></path><path d="M1890 1200L0 1200 L0 1004.75Q39.26 954.01, 90 993.27Q158.36 911.63, 240 979.98Q322.16 972.14, 330 1054.31Q383.12 957.43, 480 1010.55Q512.45 953, 570 985.44Q672.56 938, 720 1040.56Q774.99 1005.55, 810 1060.55Q840.43 940.98, 960 971.41Q1053.32 914.73, 1110 1008.06Q1200.6 948.66, 1260 1039.26Q1298.63 927.88, 1410 966.51Q1462.01 928.52, 1500 980.54Q1554.95 945.49, 1590 1000.44Q1677.95 938.39, 1740 1026.34Q1835.82 972.16, 1890 1067.98z" fill="rgba(0, 146, 238, 1)"></path><path d="M1890 1200L0 1200 L0 1075.49Q87.03 1012.52, 150 1099.55Q240.79 1040.34, 300 1131.12Q368.49 1049.61, 450 1118.11Q509.34 1027.45, 600 1086.79Q650.11 1046.9, 690 1097.01Q756.9 1073.91, 780 1140.82Q796.42 1067.24, 870 1083.66Q935.96 999.62, 1020 1065.58Q1088.93 1044.51, 1110 1113.44Q1177.65 1031.09, 1260 1098.74Q1276.44 1025.18, 1350 1041.63Q1435.13 976.77, 1500 1061.9Q1608.4 1020.31, 1650 1128.71Q1655.47 1044.18, 1740 1049.65Q1820.21 979.87, 1890 1060.08z" fill="rgba(0, 154, 247, 1)"></path><path d="M1830 1200L0 1200 L0 1191.96Q81.88 1123.85, 150 1205.73Q230.88 1136.62, 300 1217.5Q303.06 1130.56, 390 1133.62Q471.26 1064.88, 540 1146.13Q623.56 1139.69, 630 1223.25Q650.37 1153.62, 720 1173.99Q784.53 1088.52, 870 1153.05Q929.17 1062.22, 1020 1121.38Q1095.31 1106.69, 1110 1182Q1141.07 1123.07, 1200 1154.13Q1262.86 1066.99, 1350 1129.85Q1457.35 1087.2, 1500 1194.55Q1548.3 1092.85, 1650 1141.15Q1709.89 1111.05, 1740 1170.94Q1813.3 1154.24, 1830 1227.55z" fill="rgba(0, 163, 255, 1)"></path></g><defs><mask id="SvgjsMask1089"><rect width="1800" height="1200" fill="#ffffff"></rect></mask></defs></svg>