<svg xmlns="http://www.w3.org/2000/svg" version="1.1" xmlns:xlink="http://www.w3.org/1999/xlink" xmlns:svgjs="http://svgjs.dev/svgjs" width="1800" height="1200" preserveAspectRatio="none" viewBox="0 0 1800 1200"><g mask="url(&quot;#SvgjsMask1078&quot;)" fill="none"><rect width="1800" height="1200" x="0" y="0" fill="rgba(1, 45, 80, 1)"></rect><path d="M1830 1200L0 1200 L0 819.57Q83.56 753.13, 150 836.7Q241.79 778.5, 300 870.29Q393.26 813.55, 450 906.81Q467.55 834.36, 540 851.91Q562.58 784.49, 630 807.07Q682.91 769.98, 720 822.89Q773 785.88, 810 838.88Q910.55 789.43, 960 889.98Q1025.44 805.42, 1110 870.87Q1154.8 765.67, 1260 810.48Q1319.02 779.5, 1350 838.52Q1434.47 772.99, 1500 857.45Q1568.08 835.53, 1590 903.61Q1640.4 864.01, 1680 914.42Q1732.43 816.85, 1830 869.27z" fill="rgba(111, 210, 255, 1)"></path><path d="M1830 1200L0 1200 L0 898.19Q38.44 846.63, 90 885.07Q149.26 854.33, 180 913.59Q235.52 879.11, 270 934.63Q333.38 908.01, 360 971.39Q398.23 859.62, 510 897.84Q612.3 850.14, 660 952.44Q724.5 866.94, 810 931.44Q832.46 863.9, 900 886.36Q954.13 850.49, 990 904.62Q1105.08 869.7, 1140 984.78Q1192.13 886.91, 1290 939.04Q1347.46 846.5, 1440 903.96Q1511.03 884.99, 1530 956.02Q1617.18 893.2, 1680 980.39Q1749.98 900.37, 1830 970.35z" fill="rgba(35, 188, 255, 1)"></path><path d="M1830 1200L0 1200 L0 987.79Q72.06 909.85, 150 981.91Q266.81 948.72, 300 1065.54Q343.64 959.18, 450 1002.83Q534.96 937.79, 600 1022.74Q648.96 921.7, 750 970.67Q806.95 937.62, 840 994.57Q910.43 975, 930 1045.42Q987.62 1013.04, 1020 1070.66Q1067.29 967.95, 1170 1015.23Q1196.71 951.94, 1260 978.65Q1366.94 935.59, 1410 1042.53Q1466.73 1009.26, 1500 1066Q1525.39 941.39, 1650 966.79Q1706.7 933.5, 1740 990.2Q1820.82 981.02, 1830 1061.84z" fill="rgba(0, 102, 179, 1)"></path><path d="M1830 1200L0 1200 L0 1067.52Q55.9 1033.42, 90 1089.32Q185.21 1034.53, 240 1129.73Q252.3 1052.03, 330 1064.34Q396.17 980.51, 480 1046.67Q549.68 1026.35, 570 1096.03Q668.74 1044.77, 720 1143.51Q785.85 1059.36, 870 1125.2Q905.65 1070.85, 960 1106.5Q1022.47 1018.97, 1110 1081.43Q1148.81 1030.24, 1200 1069.06Q1259.99 1039.05, 1290 1099.05Q1374.97 1034.02, 1440 1118.99Q1521.38 1050.37, 1590 1131.75Q1651.13 1042.88, 1740 1104.02Q1757.4 1031.42, 1830 1048.82z" fill="rgba(0, 87, 147, 1)"></path><path d="M1890 1200L0 1200 L0 1162.46Q99.2 1111.66, 150 1210.87Q180.3 1091.17, 300 1121.47Q395.63 1067.11, 450 1162.74Q526.09 1148.83, 540 1224.91Q568.98 1103.89, 690 1132.88Q742.39 1095.27, 780 1147.66Q868.58 1086.24, 930 1174.83Q968.11 1122.93, 1020 1161.04Q1096.03 1147.07, 1110 1223.1Q1146.18 1109.28, 1260 1145.46Q1327.85 1063.31, 1410 1131.15Q1500.73 1071.88, 1560 1162.61Q1619.36 1131.97, 1650 1191.33Q1717.53 1108.86, 1800 1176.39Q1822.9 1109.3, 1890 1132.2z" fill="rgba(1, 63, 106, 1)"></path></g><defs><mask id="SvgjsMask1078"><rect width="1800" height="1200" fill="#ffffff"></rect></mask></defs></svg>