<svg id="visual" viewBox="0 0 3840 2160" width="3840" height="2160" xmlns="http://www.w3.org/2000/svg" xmlns:xlink="http://www.w3.org/1999/xlink" version="1.1"><rect x="0" y="0" width="3840" height="2160" fill="#23bcff"></rect><path d="M0 1367L549 1412L1097 1320L1646 1345L2194 1288L2743 1366L3291 1409L3840 1390L3840 2161L3291 2161L2743 2161L2194 2161L1646 2161L1097 2161L549 2161L0 2161Z" fill="#0082dd"></path><path d="M0 1654L549 1559L1097 1696L1646 1721L2194 1727L2743 1600L3291 1630L3840 1582L3840 2161L3291 2161L2743 2161L2194 2161L1646 2161L1097 2161L549 2161L0 2161Z" fill="#008ae6"></path><path d="M0 1640L549 1709L1097 1809L1646 1581L2194 1597L2743 1611L3291 1818L3840 1632L3840 2161L3291 2161L2743 2161L2194 2161L1646 2161L1097 2161L549 2161L0 2161Z" fill="#0092ee"></path><path d="M0 1768L549 1779L1097 1775L1646 1896L2194 1834L2743 1910L3291 1815L3840 1763L3840 2161L3291 2161L2743 2161L2194 2161L1646 2161L1097 2161L549 2161L0 2161Z" fill="#009af7"></path><path d="M0 2041L549 1974L1097 1936L1646 1999L2194 2041L2743 1929L3291 1924L3840 2030L3840 2161L3291 2161L2743 2161L2194 2161L1646 2161L1097 2161L549 2161L0 2161Z" fill="#00a3ff"></path></svg>
